<svg xmlns="http://www.w3.org/2000/svg" width="600" height="670" viewBox="0 0 600 670">
  <defs>
    <linearGradient id="hair" x1="0" y1="0" x2="1" y2="1"><stop stop-color="#3a174f"/><stop offset=".52" stop-color="#5e2a73"/><stop offset="1" stop-color="#24102f"/></linearGradient>
    <linearGradient id="skin" x1=".18" y1="0" x2=".86" y2="1"><stop stop-color="#f0b59f"/><stop offset=".5" stop-color="#d88f82"/><stop offset="1" stop-color="#aa615f"/></linearGradient>
    <filter id="soft" x="-20%" y="-20%" width="140%" height="140%"><feGaussianBlur stdDeviation="7"/></filter>
  </defs>
  <g id="portrait">
    <ellipse cx="300" cy="350" rx="220" ry="250" fill="#6c2b83" opacity=".18" filter="url(#soft)"/>
    <!-- bob silhouette -->
    <path fill="url(#hair)" d="M120 322C111 177 181 72 297 66c128-7 207 91 191 255l-28 174-100 49-61 23-72-23-94-52z"/>
    <path fill="#25102f" d="M120 322l45-126 74-94-30 174-31 215-45 1z"/>
    <path fill="#431b59" d="M165 196l73-94 62-36-33 132-58 78z"/>
    <path fill="#69317a" d="M238 102l62-36 75 22-48 112-60-2z"/>
    <path fill="#4b205f" d="M300 66l75 22 74 85-122 27z"/>
    <path fill="#31133f" d="M375 88l74 85 39 148-100-94-61-27z"/>
    <path fill="#57256a" d="M449 173l39 148-28 174-72-112 0-156z"/>
    <path fill="#30123d" d="M460 495l-100 49 28-161z"/>
    <!-- face -->
    <path fill="url(#skin)" d="M205 215c20-70 70-102 96-102 39 0 84 30 104 102l-8 180c-10 79-54 144-97 153-45-10-91-75-98-153z"/>
    <!-- controlled low-poly planes -->
    <path fill="#f4c0a9" d="M205 215l96-102-25 121-69 61z"/>
    <path fill="#e6a08e" d="M301 113l104 102-80 18-49 1z"/>
    <path fill="#d7897f" d="M405 215l-8 180-69-83-3-79z"/>
    <path fill="#e5a08d" d="M207 295l69-61 17 99-79 57z"/>
    <path fill="#ca776f" d="M325 233l3 79-35 21-17-99z"/>
    <path fill="#b96867" d="M328 312l69 83-97 21-7-83z"/>
    <path fill="#d88779" d="M214 390l79-57 7 83-86 25z"/>
    <path fill="#c4726c" d="M214 441l86-25 0 132c-40-10-75-58-86-107z"/>
    <path fill="#a85c5c" d="M300 416l97-21c-9 72-52 143-97 153z"/>
    <!-- temples and cheeks -->
    <path fill="#d37f78" d="M207 295l-5 100 12-5 79-57-84-20z" opacity=".9"/>
    <path fill="#bf6e69" d="M328 312l69 83-13-105z" opacity=".7"/>
    <path fill="#efad99" d="M223 302l65 8-43 36-40-20z" opacity=".45"/>
    <path fill="#d27b76" d="M374 302l-63 9 42 36 45-21z" opacity=".42"/>
    <!-- brows -->
    <path fill="#3a2034" d="M220 274c31-20 57-17 76-4l-5 12c-26-10-48-8-70 4z"/>
    <path fill="#321c31" d="M310 270c23-13 50-15 78 5l-1 12c-25-14-50-15-74-5z"/>
    <!-- eyes -->
    <path fill="#f7e6df" d="M221 302c22-20 51-20 72 0-22 22-50 23-72 0z"/>
    <path fill="#f5e1dc" d="M310 302c22-20 52-20 77 0-23 22-52 22-77 0z"/>
    <ellipse cx="260" cy="303" rx="16" ry="18" fill="#6aa0bf"/><ellipse cx="348" cy="303" rx="16" ry="18" fill="#6a9db9"/>
    <ellipse cx="260" cy="304" rx="7" ry="11" fill="#172235"/><ellipse cx="348" cy="304" rx="7" ry="11" fill="#172235"/>
    <circle cx="255" cy="297" r="3.5" fill="#fff"/><circle cx="343" cy="297" r="3.5" fill="#fff"/>
    <path d="M221 302c22-20 51-20 72 0" fill="none" stroke="#3a2434" stroke-width="6" stroke-linecap="round"/>
    <path d="M310 302c22-20 52-20 77 0" fill="none" stroke="#352130" stroke-width="6" stroke-linecap="round"/>
    <!-- nose -->
    <path fill="#c97870" d="M294 323l-12 70 20 12 24-13-18-69z"/>
    <path fill="#eba18e" d="M294 323l8 82-20-12z"/>
    <path d="M282 394c13 8 30 8 44-2" fill="none" stroke="#995357" stroke-width="5" stroke-linecap="round" opacity=".7"/>
    <!-- lips -->
    <path fill="#8f4755" d="M250 443c29-15 67-16 99 0-28 13-69 14-99 0z"/>
    <path fill="#b85e68" d="M250 443c30 5 67 5 99 0-25 27-73 31-99 0z"/>
    <path d="M253 443c31 4 64 4 93 0" fill="none" stroke="#6f3547" stroke-width="3" stroke-linecap="round"/>
    <!-- chin highlight and subtle asymmetry -->
    <path fill="#e69b87" d="M264 481l36 12 42-13-42 68z" opacity=".55"/>
    <path fill="#efad98" d="M215 390l53 27-54 24z" opacity=".24"/>
    <!-- hair side planes over face -->
    <path fill="#4b1f5d" d="M165 196l40 19 9 226-49-72z"/>
    <path fill="#2d123a" d="M405 215l44-42-1 215-51 7z"/>
    <path fill="#6c307e" d="M165 196l73-94-31 113z" opacity=".8"/>
    <path fill="#502161" d="M375 88l74 85-44 42z"/>
    <!-- neck -->
    <path fill="#b96867" d="M255 526l45 22 46-23 20 76-67 36-67-36z"/>
    <path fill="#d58378" d="M255 526l45 22-1 89-67-36z"/>
    <path fill="#432050" d="M232 601l67 36 67-36 28 38H204z" opacity=".85"/>
  </g>
</svg>
